<?xml version="1.0"?>
<svg xmlns="http://www.w3.org/2000/svg" width="512" height="512" viewBox="0 0 512 512"><g><path d="M456,208a40,40,0,0,0,2.64-79.91A55.985,55.985,0,0,0,384,101.41V64a8,8,0,0,0-8-8H360V16a8,8,0,0,0-8-8H160a8,8,0,0,0-8,8V56H136a8,8,0,0,0-8,8V176.84A55.978,55.978,0,0,0,32.45,208.9,32,32,0,0,0,40,272h88V480H16a8,8,0,0,0,0,16H464a8,8,0,0,0,0-16H384V208Zm-72-87.99a39.988,39.988,0,0,1,61.75,18.76,8.028,8.028,0,0,0,8.18,5.33c.82-.07,1.48-.1,2.07-.1a24,24,0,0,1,0,48H384ZM128,256H40a16,16,0,0,1,0-32,8,8,0,0,0,8-8,40,40,0,0,1,77.75-13.23,7.922,7.922,0,0,0,2.25,3.34ZM168,24H344V56H168ZM304,480H208v-8h96Zm-80-24V376h64v80Zm144,24H320V464a8,8,0,0,0-8-8h-8V368a8,8,0,0,0-8-8H216a8,8,0,0,0-8,8v88h-8a8,8,0,0,0-8,8v16H144V72H368Z"/><path d="M352,280H160a8,8,0,0,0-8,8v48a8,8,0,0,0,8,8H352a8,8,0,0,0,8-8V288A8,8,0,0,0,352,280Zm-8,48H168V296H344Z"/><path d="M352,184H160a8,8,0,0,0-8,8v48a8,8,0,0,0,8,8H352a8,8,0,0,0,8-8V192A8,8,0,0,0,352,184Zm-8,48H168V200H344Z"/><path d="M352,88H160a8,8,0,0,0-8,8v48a8,8,0,0,0,8,8H352a8,8,0,0,0,8-8V96A8,8,0,0,0,352,88Zm-8,48H168V104H344Z"/><path d="M496,480h-8a8,8,0,0,0,0,16h8a8,8,0,0,0,0-16Z"/></g></svg>
