<?xml version="1.0" encoding="iso-8859-1"?>
<!-- Generator: Adobe Illustrator 19.0.0, SVG Export Plug-In . SVG Version: 6.00 Build 0)  -->
<svg version="1.1" id="Capa_1" xmlns="http://www.w3.org/2000/svg" xmlns:xlink="http://www.w3.org/1999/xlink" x="0px" y="0px"
	 viewBox="0 0 457.175 457.175" style="enable-background:new 0 0 457.175 457.175;" xml:space="preserve">
<g>
	<g>
		<path d="M452.935,283.305c-0.019-0.013-0.038-0.027-0.057-0.04l0-0.001l-100.321-70.393V110.581l11.826,8.307
			c4.529,3.146,10.751,2.026,13.897-2.503c3.146-4.529,2.026-10.751-2.503-13.897l-129.8-90.619
			c-10.313-7.159-23.985-7.17-34.31-0.029L81.371,102.481c-4.534,3.153-5.654,9.385-2.501,13.919
			c1.871,2.69,4.942,4.294,8.219,4.291c2.016,0,3.983-0.626,5.628-1.792l10.84-7.59v102.428L4.245,283.259
			c-4.521,3.187-5.601,9.436-2.414,13.956c1.882,2.669,4.948,4.253,8.214,4.244c2.016,0,3.981-0.632,5.62-1.806l49.892-34.982
			V440.89c0.125,5.525,4.7,9.906,10.225,9.791h305.55c5.525,0.115,10.1-4.266,10.225-9.791v-176.3l49.878,35.052
			c4.511,3.176,10.742,2.093,13.918-2.418C458.528,292.712,457.446,286.481,452.935,283.305z M123.557,97.396l99.453-69.134
			c3.481-2.379,8.067-2.375,11.544,0.01l98,68.348v102.228l-86.461-60.573c-10.377-7.214-24.143-7.221-34.528-0.019l-88.008,61.49
			V97.396z M267.557,367.428v63.253h-78v-63.253c-0.179-5.202,3.893-9.563,9.094-9.742c0.153-0.005,0.306-0.007,0.458-0.005h58.894
			c5.204-0.074,9.483,4.084,9.558,9.288C267.564,367.122,267.562,367.275,267.557,367.428z M371.557,430.681h-84v-63.253
			c0.17-16.258-12.871-29.575-29.129-29.746c-0.141-0.001-0.283-0.002-0.424-0.001H199.11c-16.259-0.064-29.49,13.065-29.554,29.323
			c-0.001,0.141,0,0.283,0.001,0.424v63.253h-84v-180l137.4-96.037c3.51-2.401,8.135-2.399,11.642,0.007l136.958,95.915V430.681z"/>
	</g>
</g>
<g>
	<g>
		<path d="M228.557,216.187c-24.979,0.028-45.222,20.271-45.25,45.25c0,24.991,20.259,45.25,45.25,45.25s45.25-20.259,45.25-45.25
			C273.807,236.446,253.548,216.187,228.557,216.187z M228.557,286.687c-13.945,0-25.25-11.305-25.25-25.25
			s11.305-25.25,25.25-25.25c13.939,0.015,25.235,11.311,25.25,25.25C253.807,275.382,242.502,286.687,228.557,286.687z"/>
	</g>
</g>
<g>
</g>
<g>
</g>
<g>
</g>
<g>
</g>
<g>
</g>
<g>
</g>
<g>
</g>
<g>
</g>
<g>
</g>
<g>
</g>
<g>
</g>
<g>
</g>
<g>
</g>
<g>
</g>
<g>
</g>
</svg>
