<svg id="Layer_3" enable-background="new 0 0 64 64" height="512" viewBox="0 0 64 64" width="512" xmlns="http://www.w3.org/2000/svg"><g><path d="m61.293 62.707 1.414-1.414-7.707-7.707v-1.586h2v-2h-2v-4h1v2h2v-6h-2v2h-1v-7h1c.552 0 1-.447 1-1v-4c0-.552-.448-1-1-1h-3c0-.265-.105-.52-.293-.707l-5-5c-.181-.181-.431-.293-.707-.293h-4c-.552 0-1 .448-1 1v11h-20v-11c0-.552-.448-1-1-1h-4c-.276 0-.526.112-.707.293l-5 5c-.188.187-.293.442-.293.707h-3c-.552 0-1 .448-1 1v4c0 .553.448 1 1 1h1v7h-1v-2h-2v6h2v-2h1v4h-2v2h2v1.586l-7.707 7.707 1.414 1.414 1.707-1.707h4.586v2h2v-2h4.586l1.707 1.707 1.414-1.414-7.707-7.707v-1.586h2v-2h-2v-4h2v-2h-2v-7c0 .266.105.52.293.707l4.999 4.999c.181.182.431.294.708.294h4c.552 0 1-.447 1-1v-3h20v3c0 .553.448 1 1 1h4c.277 0 .527-.112.708-.294l4.999-4.999c.188-.187.293-.441.293-.707v7h-2v2h2v4h-2v2h2v1.586l-7.707 7.707 1.414 1.414 1.707-1.707h4.586v2h2v-2h4.586zm-54.879-3.707 2.586-2.586v2.586zm7.172 0h-2.586v-2.586zm-4.586-26h2v2h-2zm4-1.586 3-3v11.172l-3-3zm7 9.586h-2v-14h2zm35-8v2h-2v-2zm-9 8h-2v-14h2zm5-4.414-3 3v-11.172l3 3zm-.586 22.414 2.586-2.586v2.586zm4.586 0v-2.586l2.586 2.586z"/><path d="m8 7h3v20h2v-20h38v20h2v-20h3c.552 0 1-.448 1-1v-4c0-.552-.448-1-1-1h-48c-.552 0-1 .448-1 1v4c0 .552.448 1 1 1zm1-4h46v2h-46z"/></g></svg>