<svg id="Layer_1" enable-background="new 0 0 510 510" height="512" viewBox="0 0 510 510" width="512" xmlns="http://www.w3.org/2000/svg"><g><path d="m375 476h30c0-33.084 26.916-60 60-60h45v-30h-45c-49.626 0-90 40.374-90 90z"/><path d="m75 326h-75v30h75c66.168 0 120 53.832 120 120h30c0-82.71-67.29-150-150-150z"/><path d="m75 386h-75v30h75c33.084 0 60 26.916 60 60h30c0-49.626-40.374-90-90-90z"/><path d="m411.545 34h-133.09l-98.455 106.113v125.887h-97.5v-39.695c21.66-6.471 37.5-26.569 37.5-50.305v-82.5c0-28.948-23.552-52.5-52.5-52.5s-52.5 23.552-52.5 52.5v82.5c0 23.736 15.84 43.834 37.5 50.305v39.695h-52.5v30h75c99.252 0 180 80.748 180 180h30c0-76.302-40.91-143.223-101.943-180h50.665c51.704 45.623 81.278 110.953 81.278 180h30c0-66.168 53.832-120 120-120h45v-30h-45c-55.765 0-104.515 30.591-130.363 75.869-3.419-11.99-7.666-23.705-12.694-35.074 34.001-44.473 86.856-70.795 143.057-70.795h45c0-15.954 0-128.52 0-155.887zm49.075 97h-79.075l-62.165-67h79.075zm-250.62 20.887 75-80.833 75 80.833v114.113h-30v-75h-90v75h-30zm90 114.113h-30v-45h30zm-255-90v-82.5c0-12.406 10.094-22.5 22.5-22.5s22.5 10.094 22.5 22.5v82.5c0 12.406-10.094 22.5-22.5 22.5s-22.5-10.094-22.5-22.5zm261.951 161.77c-8.824-14.798-19.084-28.795-30.697-41.77h80.642c-18.568 11.152-35.444 25.207-49.945 41.77zm83.049-71.77v-105h90v105c-13.864 0-79.049 0-90 0z"/></g></svg>